<?xml version="1.0" encoding="UTF-8"?>
<svg version="1.1" xmlns="http://www.w3.org/2000/svg" width="512" height="512">
<path d="M0 0 C0.6712793 0.18191895 1.34255859 0.36383789 2.03417969 0.55126953 C34.39735181 9.58228938 61.51292322 32.05207902 78.11376953 60.93798828 C94.75348153 90.90756472 99.43372871 126.8490801 90 160 C80.04748815 192.87383389 58.2507971 221.51319726 27.92285156 238.13867188 C8.5204912 248.24988801 -11.88573003 253.01515773 -33.65151978 253.9083252 C-81.39278662 255.93364281 -123.30083989 271.57654431 -158 305 C-159.12921875 306.03447266 -159.12921875 306.03447266 -160.28125 307.08984375 C-188.98017625 334.17705493 -207.92047277 377.25509573 -209.23828125 416.6015625 C-209.26850243 418.60929997 -209.29314391 420.61712838 -209.3125 422.625 C-209.34150391 423.635625 -209.37050781 424.64625 -209.40039062 425.6875 C-209.45254702 431.80183376 -209.11407253 435.3660172 -205 440 C-199.70334452 443.93853869 -194.57924513 444.12461764 -188.13710022 444.13130188 C-187.12023759 444.13447545 -187.12023759 444.13447545 -186.08283228 444.13771313 C-183.81830734 444.14368981 -181.55383849 444.14271466 -179.28930664 444.1418457 C-177.6628561 444.14487869 -176.0364064 444.14840053 -174.40995789 444.15237427 C-170.91071033 444.16025194 -167.41147293 444.16540387 -163.91221809 444.16866493 C-158.37792476 444.17458275 -152.84369547 444.19112963 -147.30943298 444.21000671 C-145.41371635 444.2163437 -143.51799969 444.22266933 -141.62228298 444.22898388 C-140.19844132 444.2337326 -140.19844132 444.2337326 -138.74583519 444.23857725 C-125.86417804 444.28063895 -112.98255136 444.31363977 -100.10083008 444.32592773 C-91.40735703 444.33430561 -82.71404323 444.35678348 -74.02064985 444.3952834 C-69.42172802 444.41504806 -64.82304425 444.42744716 -60.22407722 444.42244911 C-55.89914351 444.41780579 -51.57466146 444.4315905 -47.2498188 444.45946121 C-45.66398094 444.46637748 -44.07809642 444.46649483 -42.49225998 444.45926094 C-40.32426447 444.45037118 -38.15775815 444.46606525 -35.98988342 444.48774719 C-34.77776719 444.49013555 -33.56565096 444.4925239 -32.31680393 444.49498463 C-27.19663421 445.27457983 -24.12779225 447.81285027 -20.625 451.5 C-18.22696425 456.66500009 -18.24618465 461.4002288 -19 467 C-21.30960426 471.97453225 -24.2772039 474.32335662 -29 477 C-32.45342445 477.50336456 -32.45342445 477.50336456 -36.32241821 477.50793457 C-37.39546567 477.51729451 -37.39546567 477.51729451 -38.49019086 477.52684355 C-40.87612477 477.54273859 -43.26103202 477.53018351 -45.64697266 477.51757812 C-47.36236159 477.52300111 -49.07774586 477.53012477 -50.79312134 477.53881836 C-55.44643224 477.5570419 -60.09938805 477.54998601 -64.7527051 477.53730202 C-69.63180769 477.52715953 -74.51088031 477.53657208 -79.38998413 477.54284668 C-87.58963459 477.55012359 -95.78914096 477.54053857 -103.98876953 477.52148438 C-113.44659388 477.4997591 -122.90407269 477.50673517 -132.36188853 477.52879 C-140.49634225 477.54699485 -148.63069244 477.54947623 -156.76515996 477.53903532 C-161.61688028 477.53282266 -166.46843877 477.53190221 -171.32014847 477.54518127 C-175.88886631 477.55681176 -180.45714339 477.54858376 -185.02581406 477.52560425 C-186.69460573 477.52035347 -188.36343504 477.52176801 -190.0322113 477.53065491 C-206.43600622 477.60989622 -218.52482033 474.02989864 -230.75 462.6875 C-241.20648421 451.63913932 -243.53857601 439.451645 -243.375 424.6875 C-243.37034729 424.02837616 -243.36569458 423.36925232 -243.36090088 422.69015503 C-242.93449915 370.93544962 -221.18917551 322.47487725 -186 285 C-185.50790039 284.47390137 -185.01580078 283.94780273 -184.50878906 283.40576172 C-163.48293144 261.11165732 -136.08907848 242.92266591 -107 233 C-109.98695694 229.81391259 -113.10278848 227.10610196 -116.5625 224.4375 C-139.75911195 205.94894114 -154.50544442 180.85546146 -161 152 C-161.23203125 151.04480469 -161.4640625 150.08960938 -161.703125 149.10546875 C-168.61173135 116.98044924 -160.79489942 83.16630607 -144.1875 55.3359375 C-124.95820864 26.01126818 -96.28832287 5.74479572 -62 -2 C-41.54983415 -5.90048041 -20.08634974 -5.58872603 0 0 Z M-99 54 C-99.87269531 54.804375 -100.74539062 55.60875 -101.64453125 56.4375 C-118.00588657 72.13655158 -129.74844433 94.67296153 -130.23828125 117.67578125 C-130.74231297 147.88575468 -122.42991587 172.0823995 -101.125 194.1875 C-83.32648716 211.49986226 -59.67987727 220.56186621 -35 221 C-7.25875238 220.50989163 17.3732983 208.59049832 36.5390625 188.73828125 C55.46281187 167.68185536 60.96308987 142.79943476 60.17480469 115.18994141 C58.79811849 90.06734102 44.45551072 68.49888047 26.625 51.75 C-9.25463153 21.0324469 -64.49579069 21.9332937 -99 54 Z " fill="#000000" transform="translate(291,19)"/>
<path d="M0 0 C4.63192542 2.1505368 8.12101432 5.18553139 10 10 C10.55867443 14.71284731 10.46591693 19.41131575 10.390625 24.1484375 C10.3831563 25.52990904 10.37746634 26.91139124 10.37347412 28.2928772 C10.35826689 31.91316438 10.31902917 35.5328005 10.2746582 39.15283203 C10.23359831 42.85310053 10.21544037 46.55347516 10.1953125 50.25390625 C10.15252867 57.50289964 10.08433879 64.75135828 10 72 C10.76341705 71.99111755 11.52683411 71.98223511 12.31338501 71.9730835 C19.52239084 71.89279802 26.73117863 71.83196529 33.94051552 71.79275131 C37.6465735 71.77191285 41.3522608 71.74366497 45.05810547 71.69824219 C48.63725786 71.65464888 52.21605464 71.63083477 55.79545212 71.62049103 C57.15818247 71.61312365 58.52089427 71.59873662 59.88347244 71.57707977 C73.08858548 71.37562308 73.08858548 71.37562308 78 76 C81.62833663 79.81930172 82.31000458 82.88279006 82.5 88 C82.25777597 94.52390047 80.46708005 97.67710341 75.73583984 102.13183594 C70.50603531 105.5042545 63.82896876 104.48563004 57.8515625 104.390625 C56.47009096 104.3831563 55.08860876 104.37746634 53.7071228 104.37347412 C50.08683562 104.35826689 46.4671995 104.31902917 42.84716797 104.2746582 C39.14689947 104.23359831 35.44652484 104.21544037 31.74609375 104.1953125 C24.49710036 104.15252867 17.24864172 104.08433879 10 104 C10.00888245 104.76341705 10.01776489 105.52683411 10.0269165 106.31338501 C10.10720198 113.52239084 10.16803471 120.73117863 10.20724869 127.94051552 C10.22808715 131.6465735 10.25633503 135.3522608 10.30175781 139.05810547 C10.34535112 142.63725786 10.36916523 146.21605464 10.37950897 149.79545212 C10.38687635 151.15818247 10.40126338 152.52089427 10.42292023 153.88347244 C10.62437692 167.08858548 10.62437692 167.08858548 6 172 C2.18069828 175.62833663 -0.88279006 176.31000458 -6 176.5 C-12.52390047 176.25777597 -15.67710341 174.46708005 -20.13183594 169.73583984 C-23.5042545 164.50603531 -22.48563004 157.82896876 -22.390625 151.8515625 C-22.3831563 150.47009096 -22.37746634 149.08860876 -22.37347412 147.7071228 C-22.35826689 144.08683562 -22.31902917 140.4671995 -22.2746582 136.84716797 C-22.23359831 133.14689947 -22.21544037 129.44652484 -22.1953125 125.74609375 C-22.15252867 118.49710036 -22.08433879 111.24864172 -22 104 C-22.76341705 104.00888245 -23.52683411 104.01776489 -24.31338501 104.0269165 C-31.52239084 104.10720198 -38.73117863 104.16803471 -45.94051552 104.20724869 C-49.6465735 104.22808715 -53.3522608 104.25633503 -57.05810547 104.30175781 C-60.63725786 104.34535112 -64.21605464 104.36916523 -67.79545212 104.37950897 C-69.15818247 104.38687635 -70.52089427 104.40126338 -71.88347244 104.42292023 C-85.08858548 104.62437692 -85.08858548 104.62437692 -90 100 C-93.62833663 96.18069828 -94.31000458 93.11720994 -94.5 88 C-94.25777597 81.47609953 -92.46708005 78.32289659 -87.73583984 73.86816406 C-82.50603531 70.4957455 -75.82896876 71.51436996 -69.8515625 71.609375 C-68.47009096 71.6168437 -67.08860876 71.62253366 -65.7071228 71.62652588 C-62.08683562 71.64173311 -58.4671995 71.68097083 -54.84716797 71.7253418 C-51.14689947 71.76640169 -47.44652484 71.78455963 -43.74609375 71.8046875 C-36.49710036 71.84747133 -29.24864172 71.91566121 -22 72 C-22.00888245 71.23658295 -22.01776489 70.47316589 -22.0269165 69.68661499 C-22.10720198 62.47760916 -22.16803471 55.26882137 -22.20724869 48.05948448 C-22.22808715 44.3534265 -22.25633503 40.6477392 -22.30175781 36.94189453 C-22.34535112 33.36274214 -22.36916523 29.78394536 -22.37950897 26.20454788 C-22.38687635 24.84181753 -22.40126338 23.47910573 -22.42292023 22.11652756 C-22.62437692 8.91141452 -22.62437692 8.91141452 -18 4 C-12.72867143 -1.00776214 -6.89190982 -0.92775709 0 0 Z " fill="#000000" transform="translate(382,288)"/>
</svg>
